# xmcd
#
# Track frame offsets:
#	150
#	12330
#	24275
#	36535
#	48430
#	61887
#	74795
#	86935
#	99057
#	110085
#	122397
#	134350
#	146482
#	158042
#	169375
#	181627
#	195350
#	208085
#	220460
#	231265
#	242205
#	254792
#	266740
#	279902
#	291090
#	302385
#	312552
#	324102
#
# Disc length: 4469 seconds
#
# Revision: 3
# Processed by: cddbd v1.5.2PL0 Copyright (c) Steve Scherf et al.
# Submitted via: EasyCDDAExtractor 11.0.0.1
#
DISCID=a011731c
DTITLE=Flatt and Scruggs - Bear Family Box 1948-1959 - CD1
DYEAR=1991
DGENRE=Country
TTITLE0=God Loves His Children
TTITLE1=I'm Going To Make Heaven My Home
TTITLE2=We'll Meet Again Sweetheart
TTITLE3=My Cabin In Caroline
TTITLE4=Baby Blue Eyes
TTITLE5=Bouquet In Heaven
TTITLE6=Down The Road
TTITLE7=Why Don't You Tell Her So?
TTITLE8=I'll Never Shed Another Tear
TTITLE9=No Mother Or Dad
TTITLE10=Is It Too Late Now!
TTITLE11=Foggy Mountain Breakdown
TTITLE12=I'll Be Going To Heaven Sometime
TTITLE13=So Happy I'll Be
TTITLE14=My Little Girl In Tennessee
TTITLE15=I'll Never Love Another
TTITLE16=Doin' My Time
TTITLE17=Pike County Breakdown
TTITLE18=Cora Is Gone
TTITLE19=Preachin' , Prayin', Singin'
TTITLE20=Pain In My Heart
TTITLE21=Roll In My Sweet Baby's Arms
TTITLE22=Back To The Cross
TTITLE23=Farewell Blues
TTITLE24=Old Salty Dog Blues
TTITLE25=Take Me In A Lifeboat
TTITLE26=Will The Roses Bloom
TTITLE27=I'll Just Pretend
EXTD=Bear Family Records - BCD 15472-1\n\nDisc 1 of 4 Volume Set
EXTT0=
EXTT1=
EXTT2=
EXTT3=
EXTT4=
EXTT5=
EXTT6=
EXTT7=
EXTT8=
EXTT9=
EXTT10=
EXTT11=
EXTT12=
EXTT13=
EXTT14=
EXTT15=
EXTT16=
EXTT17=
EXTT18=
EXTT19=
EXTT20=
EXTT21=
EXTT22=
EXTT23=
EXTT24=
EXTT25=
EXTT26=
EXTT27=
PLAYORDER=
